<svg width="24" height="24" viewBox="0 0 24 24" fill="none" xmlns="http://www.w3.org/2000/svg">
<path d="M8.75753 22H14.5957C19.4609 22 21.407 20 21.407 15V9C21.407 4 19.4609 2 14.5957 2H8.75753C3.89236 2 1.94629 4 1.94629 9V15C1.94629 20 3.89236 22 8.75753 22Z" stroke="#E11E24" stroke-width="1.5" stroke-linecap="round" stroke-linejoin="round"/>
<path d="M17.5148 7.75V14.5C17.5148 13.4 16.6391 12.5 15.5687 12.5H7.78445C6.71411 12.5 5.83838 13.4 5.83838 14.5V7.75C5.83838 6.65 6.71411 5.75 7.78445 5.75H15.5687C16.6391 5.75 17.5148 6.65 17.5148 7.75Z" stroke="#E11E24" stroke-width="1.5" stroke-linecap="round" stroke-linejoin="round"/>
<path d="M18.4877 15.75H17.5146" stroke="#E11E24" stroke-width="1.5" stroke-linecap="round" stroke-linejoin="round"/>
<path d="M5.83827 15.75H4.86523" stroke="#E11E24" stroke-width="1.5" stroke-linecap="round" stroke-linejoin="round"/>
<path d="M17.5148 14V11C17.5148 9.9 16.6391 9 15.5687 9H7.78445C6.71411 9 5.83838 9.9 5.83838 11V14" stroke="#E11E24" stroke-width="1.5" stroke-linecap="round" stroke-linejoin="round"/>
<path d="M17.5148 14.5V15.75H14.1092C14.1092 17.13 13.0194 18.25 11.6766 18.25C10.3338 18.25 9.244 17.13 9.244 15.75H5.83838V14.5C5.83838 13.4 6.71411 12.5 7.78445 12.5H15.5687C16.6391 12.5 17.5148 13.4 17.5148 14.5Z" stroke="#E11E24" stroke-width="1.5" stroke-linecap="round" stroke-linejoin="round"/>
</svg>
