<svg width="24" height="24" viewBox="0 0 24 24" fill="none" xmlns="http://www.w3.org/2000/svg">
<path d="M11.6761 22C17.0501 22 21.4065 17.5228 21.4065 12C21.4065 6.47715 17.0501 2 11.6761 2C6.30222 2 1.9458 6.47715 1.9458 12C1.9458 17.5228 6.30222 22 11.6761 22Z" stroke="#E11E24" stroke-width="1.5" stroke-miterlimit="10" stroke-linecap="round" stroke-linejoin="round"/>
<path d="M11.6763 14.8799C10.7908 14.8799 10.0708 14.1399 10.0708 13.2299V10.7599C10.0708 9.84989 10.7908 9.10986 11.6763 9.10986C12.5618 9.10986 13.2818 9.84989 13.2818 10.7599V13.2299C13.2818 14.1399 12.5618 14.8799 11.6763 14.8799Z" stroke="#E11E24" stroke-width="1.5" stroke-linecap="round"/>
<path d="M16.5219 13.4699C16.3273 16.0499 14.2256 18.0699 11.6762 18.0699C8.99063 18.0699 6.81104 15.8299 6.81104 13.0699V10.9299C6.81104 8.16993 8.99063 5.92993 11.6762 5.92993C14.1964 5.92993 16.2689 7.89992 16.5122 10.4199" stroke="#E11E24" stroke-width="1.5" stroke-linecap="round"/>
</svg>
