<svg width="31" height="31" viewBox="0 0 31 31" fill="none" xmlns="http://www.w3.org/2000/svg">
<rect width="31" height="31" rx="6" fill="#F8F8F8"/>
<path d="M12.3428 18.5899C12.8086 18.0903 13.3719 17.6915 13.9978 17.418C14.6237 17.1446 15.2995 17.0025 15.9826 17.0001C16.6656 16.9977 17.3419 17.1353 17.9697 17.4044C18.5975 17.6735 19.1637 18.0683 19.633 18.5646M10.1494 15.5439C10.8948 14.7446 11.796 14.1066 12.7975 13.669C13.7989 13.2315 14.8793 13.0039 15.9721 13.0001C17.065 12.9963 18.1466 13.2165 19.1511 13.647C20.1556 14.0776 21.0617 14.7094 21.8127 15.5035M7.22363 12.8164C8.34165 11.6174 9.69347 10.6603 11.1957 10.004C12.6979 9.34768 14.3179 9.0058 15.9572 9.00007C17.5966 8.99435 19.2208 9.32472 20.7276 9.97052C22.2344 10.6163 23.5931 11.5646 24.7195 12.7557M16 23.0001C15.4477 23.0001 15 22.5524 15 22.0001C15 21.4478 15.4477 21.0001 16 21.0001C16.5523 21.0001 17 21.4478 17 22.0001C17 22.5524 16.5523 23.0001 16 23.0001Z" stroke="#E11E24" stroke-width="2" stroke-linecap="round" stroke-linejoin="round"/>
</svg>
